<svg width="20" height="21" viewBox="0 0 20 21" fill="none" xmlns="http://www.w3.org/2000/svg">
<path d="M12.4996 15.7015C12.6504 15.5508 12.7428 15.3412 12.7425 15.1111L12.7425 15.0099C12.7425 14.5491 12.3694 14.176 11.9092 14.1766L7.35631 14.1766L15.0581 6.47485C15.3833 6.14959 15.3833 5.62161 15.0581 5.29634C14.7328 4.97107 14.2048 4.97107 13.8796 5.29634L6.1778 12.9981V8.44518C6.1778 7.98438 5.80476 7.61134 5.34455 7.61193H5.24327C4.78248 7.61193 4.40944 7.98497 4.41003 8.44518V15.1111C4.41003 15.5719 4.78306 15.945 5.24327 15.9444L11.9092 15.9444C12.1396 15.9444 12.3489 15.8523 12.4996 15.7015Z" fill="#FF3B30"/>
</svg>
