<svg width="31" height="30" viewBox="0 0 31 30" fill="none" xmlns="http://www.w3.org/2000/svg">
<path d="M24.7663 15.5494V13.125H22.8816V15.9375C22.8817 16.1861 22.981 16.4245 23.1577 16.6003L25.7086 19.1381V20.625H4.97742V19.1381L7.5283 16.6003C7.70503 16.4245 7.80435 16.1861 7.8044 15.9375V12.1875C7.80177 10.8701 8.14863 9.57538 8.80994 8.43405C9.47125 7.29272 10.4236 6.34522 11.5708 5.68726C12.718 5.02929 14.0194 4.68416 15.3435 4.68673C16.6677 4.6893 17.9677 5.03947 19.1123 5.70187V3.60656C18.2153 3.21143 17.2612 2.95958 16.2853 2.86031V0.9375H14.4007V2.85938C12.0774 3.09462 9.92441 4.17855 8.35789 5.90155C6.79138 7.62455 5.92267 9.86422 5.91975 12.1875V15.5494L3.36887 18.0872C3.19214 18.263 3.09283 18.5014 3.09277 18.75V21.5625C3.09277 21.8111 3.19205 22.0496 3.36877 22.2254C3.54549 22.4012 3.78518 22.5 4.0351 22.5H10.6314V23.4375C10.6314 24.6807 11.1278 25.873 12.0114 26.7521C12.895 27.6311 14.0934 28.125 15.343 28.125C16.5926 28.125 17.791 27.6311 18.6746 26.7521C19.5582 25.873 20.0546 24.6807 20.0546 23.4375V22.5H26.6509C26.9008 22.5 27.1405 22.4012 27.3172 22.2254C27.494 22.0496 27.5932 21.8111 27.5932 21.5625V18.75C27.5932 18.5014 27.4939 18.263 27.3171 18.0872L24.7663 15.5494ZM18.17 23.4375C18.17 24.1834 17.8721 24.8988 17.342 25.4262C16.8118 25.9537 16.0928 26.25 15.343 26.25C14.5932 26.25 13.8742 25.9537 13.344 25.4262C12.8139 24.8988 12.516 24.1834 12.516 23.4375V22.5H18.17V23.4375Z" fill="#677AE5"/>
<path d="M24.7664 11.25C26.8481 11.25 28.5357 9.57107 28.5357 7.5C28.5357 5.42893 26.8481 3.75 24.7664 3.75C22.6846 3.75 20.9971 5.42893 20.9971 7.5C20.9971 9.57107 22.6846 11.25 24.7664 11.25Z" fill="#FF5959"/>
</svg>
