<svg width="64" height="64" viewBox="0 0 64 64" fill="none" xmlns="http://www.w3.org/2000/svg">
<g filter="url(#filter0_d_1240_5146)">
<rect x="10" y="8" width="44" height="44" rx="6" fill="#FFF6F0" shape-rendering="crispEdges"/>
<path d="M32 30L26.3 25.725C26.2074 25.6546 26.1322 25.564 26.0802 25.4599C26.0281 25.3559 26.0007 25.2413 26 25.125V21.75C26 21.5511 26.079 21.3603 26.2197 21.2197C26.3603 21.079 26.5511 21 26.75 21H37.25C37.4489 21 37.6397 21.079 37.7803 21.2197C37.921 21.3603 38 21.5511 38 21.75V25.0875C37.9993 25.2038 37.9719 25.3184 37.9198 25.4224C37.8678 25.5265 37.7926 25.6171 37.7 25.6875L32 30Z" stroke="#EC903C" stroke-width="2" stroke-linecap="round" stroke-linejoin="round"/>
<path d="M32 30L26.3 34.275C26.2074 34.3454 26.1322 34.436 26.0802 34.5401C26.0281 34.6441 26.0007 34.7587 26 34.875V38.25C26 38.4489 26.079 38.6397 26.2197 38.7803C26.3603 38.921 26.5511 39 26.75 39H37.25C37.4489 39 37.6397 38.921 37.7803 38.7803C37.921 38.6397 38 38.4489 38 38.25V34.9125C37.9993 34.7962 37.9719 34.6816 37.9198 34.5776C37.8678 34.4735 37.7926 34.3829 37.7 34.3125L32 30Z" stroke="#EC903C" stroke-width="2" stroke-linecap="round" stroke-linejoin="round"/>
<path d="M26 24.75H38" stroke="#EC903C" stroke-width="2" stroke-linecap="round" stroke-linejoin="round"/>
</g>
<defs>
<filter id="filter0_d_1240_5146" x="0" y="0" width="64" height="64" filterUnits="userSpaceOnUse" color-interpolation-filters="sRGB">
<feFlood flood-opacity="0" result="BackgroundImageFix"/>
<feColorMatrix in="SourceAlpha" type="matrix" values="0 0 0 0 0 0 0 0 0 0 0 0 0 0 0 0 0 0 127 0" result="hardAlpha"/>
<feOffset dy="2"/>
<feGaussianBlur stdDeviation="5"/>
<feComposite in2="hardAlpha" operator="out"/>
<feColorMatrix type="matrix" values="0 0 0 0 1 0 0 0 0 0.964706 0 0 0 0 0.941176 0 0 0 0.25 0"/>
<feBlend mode="normal" in2="BackgroundImageFix" result="effect1_dropShadow_1240_5146"/>
<feBlend mode="normal" in="SourceGraphic" in2="effect1_dropShadow_1240_5146" result="shape"/>
</filter>
</defs>
</svg>
