<svg width="19" height="18" viewBox="0 0 19 18" fill="none" xmlns="http://www.w3.org/2000/svg">
<path d="M8.09707 15.3945C9.80496 15.3941 11.4636 14.8224 12.809 13.7704L17.0389 18L18.3994 16.6395L14.1696 12.4099C15.2222 11.0645 15.7943 9.40549 15.7947 7.69724C15.7947 3.45318 12.3414 0 8.09707 0C3.85277 0 0.399414 3.45318 0.399414 7.69724C0.399414 11.9413 3.85277 15.3945 8.09707 15.3945ZM8.09707 1.92431C11.281 1.92431 13.8703 4.51347 13.8703 7.69724C13.8703 10.881 11.281 13.4702 8.09707 13.4702C4.91313 13.4702 2.32383 10.881 2.32383 7.69724C2.32383 4.51347 4.91313 1.92431 8.09707 1.92431Z" fill="#64748B"/>
</svg>
