<svg width="370" height="370" viewBox="0 0 370 370" fill="none" xmlns="http://www.w3.org/2000/svg">
<circle cx="185" cy="185" r="185" fill="#F5F5F6"/>
<g clip-path="url(#clip0_2386_36810)">
<path d="M145.901 214.4V273.352C145.901 276.6 143.265 279.266 140.011 279.266H37.5272C34.3018 279.266 31.6543 276.6 31.6543 273.352V214.4C31.6543 211.128 34.3018 208.48 37.5272 208.48H140.011C143.265 208.48 145.901 211.128 145.901 214.4Z" fill="#0A6EF0"/>
<path d="M42.6543 241.496C42.6543 242.279 42.9654 243.03 43.5191 243.584C44.0728 244.138 44.8238 244.449 45.6069 244.449H48.7381V241.145H42.6543V241.496Z" fill="white"/>
<path d="M48.7367 236.727H42.6543V240.099H48.7367V236.727Z" fill="white"/>
<path d="M42.6543 230.901V231.253H48.7381V227.945H45.6076C45.2195 227.945 44.8352 228.022 44.4767 228.17C44.1181 228.319 43.7924 228.537 43.5181 228.811C43.2438 229.086 43.0263 229.412 42.8781 229.77C42.7299 230.129 42.6538 230.513 42.6543 230.901Z" fill="white"/>
<path d="M58.0356 227.949H49.7852V244.451H53.9807V231.257H60.9896V230.905C60.99 230.517 60.914 230.133 60.7657 229.774C60.6174 229.415 60.3999 229.089 60.1255 228.815C59.8512 228.54 59.5253 228.322 59.1667 228.174C58.8081 228.025 58.4237 227.949 58.0356 227.949Z" fill="white"/>
<path d="M48.7367 232.305H42.6543V235.677H48.7367V232.305Z" fill="white"/>
<path d="M60.99 232.305H55.0293V235.677H60.99V232.305Z" fill="white"/>
<path d="M60.99 236.727H55.0293V240.099H60.99V236.727Z" fill="white"/>
<path d="M55.0293 244.453H58.036C58.8191 244.453 59.5701 244.141 60.1238 243.588C60.6776 243.034 60.9886 242.283 60.9886 241.5V241.148H55.0293V244.453Z" fill="white"/>
<path d="M39.3948 233.465L36.6602 236.2L39.3948 238.933V233.465Z" fill="white"/>
<path d="M43.7174 253.321C43.4095 252.973 43.2415 252.518 43.2134 251.954C43.2091 251.827 43.207 251.611 43.207 251.306C43.207 251.001 43.2091 250.78 43.2134 250.643C43.2368 250.089 43.406 249.638 43.7209 249.291C44.0359 248.944 44.5031 248.77 45.1227 248.77C45.7432 248.77 46.2107 248.943 46.5252 249.291C46.8397 249.639 47.0086 250.09 47.0321 250.643C47.0419 250.907 47.0468 251.128 47.0468 251.306C47.0468 251.484 47.0419 251.7 47.0321 251.954C47.0039 252.517 46.8362 252.972 46.5287 253.321C46.2213 253.669 45.7526 253.843 45.1227 253.842C44.4938 253.842 44.0253 253.669 43.7174 253.321ZM45.7779 252.732C45.9241 252.545 46.0017 252.274 46.0106 251.919C46.0155 251.783 46.0176 251.573 46.0176 251.292C46.0176 251.011 46.0176 250.805 46.0106 250.679C46.0017 250.336 45.9241 250.068 45.7779 249.875C45.6331 249.683 45.4137 249.584 45.1227 249.579C44.8317 249.574 44.6137 249.683 44.4675 249.875C44.3213 250.068 44.2447 250.336 44.2348 250.679C44.2299 250.805 44.2285 251.01 44.2285 251.292C44.2285 251.574 44.2285 251.784 44.2348 251.919C44.2447 252.271 44.3222 252.542 44.4675 252.732C44.6128 252.923 44.8312 253.018 45.1227 253.018C45.4137 253.018 45.6331 252.923 45.7779 252.733V252.732Z" fill="white"/>
<path d="M49.4856 253.722C49.4697 253.707 49.457 253.688 49.4486 253.668C49.4401 253.647 49.436 253.625 49.4364 253.603V249.967L48.3728 250.784C48.3428 250.809 48.3051 250.821 48.2666 250.82C48.2402 250.82 48.214 250.814 48.1906 250.802C48.1672 250.79 48.1474 250.771 48.1331 250.749L47.8294 250.355C47.8078 250.326 47.7957 250.292 47.7949 250.256C47.7951 250.228 47.8022 250.2 47.8157 250.176C47.8292 250.151 47.8487 250.13 47.8723 250.115L49.4498 248.889C49.5028 248.856 49.5644 248.839 49.6269 248.84H50.2596C50.2819 248.84 50.3039 248.844 50.3245 248.852C50.3451 248.861 50.3638 248.873 50.3796 248.889C50.3954 248.905 50.4079 248.923 50.4163 248.944C50.4248 248.964 50.4292 248.986 50.4291 249.009V253.603C50.4292 253.625 50.4248 253.647 50.4163 253.668C50.4079 253.688 50.3954 253.707 50.3796 253.722C50.3638 253.738 50.3451 253.751 50.3245 253.759C50.3039 253.767 50.2819 253.772 50.2596 253.771H49.6044C49.5823 253.772 49.5604 253.768 49.5399 253.759C49.5195 253.751 49.501 253.738 49.4856 253.722Z" fill="white"/>
<path d="M52.0404 253.321C51.7315 252.973 51.5633 252.518 51.5356 251.954C51.5356 251.827 51.5293 251.611 51.5293 251.306C51.5293 251.001 51.5293 250.775 51.5356 250.643C51.5595 250.089 51.7287 249.638 52.0432 249.291C52.3577 248.944 52.8249 248.77 53.445 248.77C54.0655 248.77 54.5342 248.943 54.851 249.291C55.1678 249.639 55.3365 250.09 55.3571 250.643C55.367 250.907 55.3719 251.128 55.3719 251.306C55.3719 251.484 55.367 251.7 55.3571 251.954C55.329 252.517 55.1612 252.972 54.8538 253.321C54.5463 253.669 54.0777 253.843 53.4478 253.842C52.8156 253.842 52.3464 253.669 52.0404 253.321ZM54.1009 252.732C54.2464 252.543 54.3244 252.271 54.3329 251.919C54.3378 251.783 54.3406 251.573 54.3406 251.292C54.3406 251.011 54.3406 250.805 54.3329 250.679C54.3244 250.336 54.2464 250.068 54.1009 249.875C53.9554 249.683 53.7367 249.584 53.445 249.579C53.1532 249.574 52.936 249.683 52.7898 249.875C52.6436 250.068 52.5669 250.336 52.5578 250.679C52.5529 250.805 52.5515 251.01 52.5515 251.292C52.5515 251.574 52.5515 251.784 52.5578 251.919C52.5669 252.27 52.645 252.543 52.7898 252.732C52.9346 252.922 53.1539 253.018 53.445 253.018C53.736 253.018 53.9532 252.923 54.0988 252.733L54.1009 252.732Z" fill="white"/>
<path d="M57.806 253.722C57.79 253.707 57.7774 253.688 57.7689 253.668C57.7605 253.647 57.7563 253.625 57.7568 253.603V249.967L56.6932 250.784C56.6634 250.808 56.626 250.821 56.5877 250.82C56.5612 250.82 56.5349 250.814 56.5113 250.802C56.4878 250.79 56.4679 250.772 56.4534 250.749L56.1497 250.355C56.1356 250.337 56.1255 250.316 56.12 250.294C56.1145 250.271 56.1138 250.248 56.1178 250.225C56.1218 250.203 56.1306 250.181 56.1435 250.162C56.1564 250.143 56.1731 250.127 56.1926 250.115L57.7702 248.889C57.8232 248.856 57.8847 248.839 57.9473 248.84H58.58C58.6024 248.839 58.6246 248.844 58.6452 248.852C58.6659 248.86 58.6846 248.873 58.7002 248.889C58.716 248.905 58.7285 248.923 58.7369 248.944C58.7454 248.964 58.7496 248.986 58.7494 249.009V253.603C58.7495 253.625 58.7452 253.647 58.7367 253.668C58.7282 253.688 58.7157 253.707 58.7 253.722C58.6842 253.738 58.6655 253.751 58.6449 253.759C58.6243 253.767 58.6023 253.772 58.58 253.771H57.9248C57.9027 253.772 57.8807 253.768 57.8603 253.759C57.8399 253.751 57.8214 253.738 57.806 253.722Z" fill="white"/>
<path d="M68.4049 253.321C68.097 252.973 67.929 252.518 67.9009 251.954C67.8966 251.827 67.8945 251.611 67.8945 251.306C67.8945 251.001 67.8966 250.78 67.9009 250.643C67.9243 250.089 68.0935 249.638 68.4084 249.291C68.7234 248.944 69.1906 248.77 69.8102 248.77C70.4312 248.77 70.8999 248.943 71.2162 249.291C71.5326 249.639 71.7015 250.09 71.7231 250.643C71.7329 250.907 71.7378 251.128 71.7378 251.306C71.7378 251.484 71.7329 251.7 71.7231 251.954C71.6949 252.517 71.5272 252.972 71.2197 253.321C70.9123 253.669 70.4436 253.843 69.8137 253.842C69.1815 253.842 68.7119 253.669 68.4049 253.321ZM70.4654 252.732C70.6116 252.545 70.6892 252.274 70.6981 251.919C70.7023 251.783 70.7051 251.573 70.7051 251.292C70.7051 251.011 70.7051 250.805 70.6981 250.679C70.6887 250.336 70.6112 250.068 70.4654 249.875C70.3196 249.683 70.1012 249.584 69.8102 249.579C69.5187 249.585 69.3003 249.683 69.155 249.875C69.0097 250.068 68.9322 250.335 68.9223 250.679C68.9174 250.805 68.916 251.01 68.916 251.292C68.916 251.574 68.916 251.784 68.9223 251.919C68.9322 252.271 69.0097 252.542 69.155 252.732C69.3003 252.923 69.5187 253.018 69.8102 253.018C70.1022 253.018 70.3206 252.923 70.4654 252.733V252.732Z" fill="white"/>
<path d="M74.173 253.722C74.157 253.707 74.1444 253.688 74.1359 253.668C74.1275 253.647 74.1233 253.625 74.1238 253.603V249.967L73.0615 250.784C73.0319 250.809 72.9944 250.821 72.9561 250.82C72.9296 250.82 72.9034 250.814 72.88 250.802C72.8566 250.79 72.8368 250.772 72.8225 250.749L72.5188 250.355C72.4972 250.326 72.4852 250.292 72.4844 250.256C72.4845 250.228 72.4917 250.2 72.5052 250.176C72.5187 250.151 72.5381 250.13 72.5617 250.115L74.1392 248.889C74.192 248.856 74.2533 248.839 74.3157 248.84H74.9484C74.9708 248.84 74.9931 248.844 75.0139 248.852C75.0347 248.861 75.0535 248.873 75.0693 248.889C75.085 248.905 75.0974 248.923 75.1058 248.944C75.1143 248.964 75.1186 248.986 75.1185 249.009V253.603C75.1186 253.625 75.1143 253.647 75.1057 253.668C75.0972 253.688 75.0846 253.707 75.0688 253.723C75.053 253.738 75.0342 253.751 75.0135 253.759C74.9928 253.768 74.9707 253.772 74.9484 253.771H74.2932C74.2709 253.772 74.2487 253.768 74.228 253.759C74.2073 253.751 74.1886 253.738 74.173 253.722Z" fill="white"/>
<path d="M76.7279 253.321C76.4195 252.973 76.2512 252.518 76.2231 251.954C76.2189 251.827 76.2168 251.611 76.2168 251.306C76.2168 251.001 76.2189 250.78 76.2231 250.643C76.247 250.089 76.4162 249.638 76.7307 249.291C77.0452 248.944 77.5124 248.77 78.1325 248.77C78.7535 248.77 79.2209 248.943 79.535 249.291C79.849 249.639 80.0179 250.09 80.0418 250.643C80.0517 250.907 80.0566 251.128 80.0566 251.306C80.0566 251.484 80.0517 251.7 80.0418 251.954C80.0137 252.517 79.8459 252.972 79.5385 253.321C79.231 253.669 78.7624 253.843 78.1325 253.842C77.5035 253.842 77.0353 253.669 76.7279 253.321ZM78.7877 252.732C78.9339 252.545 79.0115 252.274 79.0204 251.919C79.0253 251.783 79.0274 251.573 79.0274 251.292C79.0274 251.011 79.0274 250.805 79.0204 250.679C79.0115 250.336 78.9339 250.068 78.7877 249.875C78.6414 249.683 78.423 249.584 78.1325 249.579C77.8414 249.585 77.623 249.683 77.4773 249.875C77.3315 250.068 77.2542 250.335 77.2453 250.679C77.2406 250.805 77.2383 251.01 77.2383 251.292C77.2383 251.573 77.2383 251.784 77.2453 251.919C77.2542 252.271 77.3315 252.542 77.4773 252.732C77.623 252.923 77.8414 253.018 78.1325 253.018C78.4245 253.018 78.6429 252.923 78.7877 252.733V252.732Z" fill="white"/>
<path d="M82.4935 253.722C82.4775 253.707 82.4649 253.688 82.4564 253.668C82.448 253.647 82.4438 253.625 82.4443 253.603V249.967L81.3807 250.784C81.3507 250.809 81.313 250.821 81.2745 250.82C81.2481 250.82 81.2219 250.814 81.1985 250.802C81.1751 250.79 81.1553 250.771 81.1409 250.749L80.8372 250.355C80.8231 250.337 80.813 250.316 80.8075 250.294C80.802 250.271 80.8013 250.248 80.8053 250.225C80.8093 250.203 80.8181 250.181 80.831 250.162C80.8439 250.143 80.8606 250.127 80.8801 250.115L82.4577 248.889C82.5107 248.856 82.5722 248.839 82.6348 248.84H83.2675C83.2898 248.84 83.3118 248.844 83.3324 248.852C83.353 248.861 83.3717 248.873 83.3875 248.889C83.4032 248.905 83.4157 248.923 83.4242 248.944C83.4327 248.964 83.437 248.986 83.4369 249.009V253.603C83.437 253.625 83.4327 253.647 83.4242 253.668C83.4157 253.688 83.4032 253.707 83.3875 253.722C83.3717 253.738 83.353 253.751 83.3324 253.759C83.3118 253.767 83.2898 253.772 83.2675 253.771H82.6123C82.5902 253.772 82.5682 253.768 82.5478 253.759C82.5274 253.751 82.5089 253.738 82.4935 253.722Z" fill="white"/>
<path d="M93.097 253.321C92.7891 252.973 92.6211 252.518 92.593 251.954C92.5887 251.827 92.5859 251.611 92.5859 251.306C92.5859 251.001 92.5859 250.775 92.593 250.643C92.6159 250.089 92.7851 249.638 93.1005 249.291C93.416 248.944 93.8832 248.77 94.5023 248.77C95.1224 248.77 95.591 248.943 95.9083 249.291C96.2256 249.639 96.3946 250.09 96.4152 250.643C96.4245 250.907 96.4292 251.128 96.4292 251.306C96.4292 251.484 96.4245 251.7 96.4152 251.954C96.3871 252.517 96.219 252.972 95.9111 253.321C95.6032 253.669 95.1346 253.843 94.5051 253.842C93.8715 253.842 93.4021 253.669 93.097 253.321ZM95.1575 252.732C95.3037 252.545 95.3811 252.274 95.3895 251.919C95.3944 251.783 95.3972 251.573 95.3972 251.292C95.3972 251.011 95.3972 250.805 95.3895 250.679C95.3811 250.336 95.3037 250.068 95.1575 249.875C95.0113 249.683 94.7929 249.584 94.5023 249.579C94.2103 249.585 93.9919 249.683 93.8471 249.875C93.7023 250.068 93.6247 250.335 93.6144 250.679C93.6095 250.805 93.6081 251.01 93.6081 251.292C93.6081 251.574 93.6081 251.784 93.6144 251.919C93.6243 252.271 93.7018 252.542 93.8471 252.732C93.9924 252.923 94.2108 253.018 94.5023 253.018C94.7915 253.018 95.0089 252.923 95.1547 252.733L95.1575 252.732Z" fill="white"/>
<path d="M98.8607 253.722C98.8447 253.707 98.8321 253.688 98.8236 253.668C98.8151 253.647 98.811 253.625 98.8115 253.603V249.967L97.7478 250.784C97.7181 250.809 97.6806 250.821 97.6424 250.82C97.6158 250.82 97.5896 250.814 97.566 250.802C97.5425 250.79 97.5226 250.771 97.5081 250.749L97.2051 250.355C97.1908 250.337 97.1805 250.316 97.1748 250.294C97.1692 250.271 97.1684 250.248 97.1725 250.225C97.1765 250.203 97.1853 250.181 97.1984 250.162C97.2114 250.143 97.2283 250.127 97.248 250.115L98.8255 248.889C98.8783 248.856 98.9396 248.839 99.002 248.84H99.6347C99.657 248.839 99.6792 248.844 99.6999 248.852C99.7206 248.86 99.7393 248.873 99.7549 248.889C99.7707 248.905 99.7832 248.923 99.7916 248.944C99.8001 248.964 99.8043 248.986 99.8041 249.009V253.603C99.8042 253.625 99.7999 253.647 99.7914 253.668C99.7829 253.688 99.7704 253.707 99.7546 253.722C99.7389 253.738 99.7202 253.751 99.6996 253.759C99.679 253.767 99.6569 253.772 99.6347 253.771H98.9795C98.9574 253.772 98.9354 253.767 98.915 253.759C98.8946 253.751 98.8761 253.738 98.8607 253.722Z" fill="white"/>
<path d="M101.415 253.321C101.107 252.973 100.939 252.518 100.911 251.954C100.906 251.827 100.904 251.611 100.904 251.306C100.904 251.001 100.906 250.78 100.911 250.643C100.934 250.089 101.103 249.638 101.418 249.291C101.734 248.944 102.201 248.77 102.82 248.77C103.441 248.77 103.91 248.943 104.226 249.291C104.542 249.639 104.711 250.09 104.733 250.643C104.743 250.907 104.748 251.128 104.748 251.306C104.748 251.484 104.743 251.7 104.733 251.954C104.705 252.517 104.537 252.972 104.229 253.321C103.922 253.669 103.453 253.843 102.823 253.842C102.192 253.842 101.722 253.669 101.415 253.321ZM103.475 252.732C103.621 252.545 103.699 252.274 103.708 251.919C103.713 251.783 103.715 251.573 103.715 251.292C103.715 251.011 103.715 250.805 103.708 250.679C103.698 250.336 103.621 250.068 103.475 249.875C103.33 249.683 103.111 249.584 102.82 249.579C102.529 249.574 102.311 249.683 102.165 249.875C102.019 250.068 101.942 250.336 101.932 250.679C101.927 250.805 101.926 251.01 101.926 251.292C101.926 251.574 101.926 251.784 101.932 251.919C101.942 252.271 102.019 252.542 102.165 252.732C102.31 252.923 102.528 253.018 102.82 253.018C103.111 253.018 103.33 252.923 103.475 252.733V252.732Z" fill="white"/>
<path d="M107.181 253.722C107.165 253.707 107.152 253.688 107.144 253.668C107.135 253.647 107.131 253.625 107.132 253.603V249.967L106.068 250.784C106.038 250.809 106 250.821 105.962 250.82C105.936 250.82 105.909 250.814 105.886 250.802C105.863 250.79 105.843 250.771 105.828 250.749L105.525 250.355C105.503 250.326 105.491 250.292 105.49 250.256C105.49 250.228 105.498 250.2 105.511 250.176C105.525 250.151 105.544 250.13 105.568 250.115L107.145 248.889C107.198 248.856 107.259 248.839 107.322 248.84H107.954C107.976 248.84 107.999 248.844 108.019 248.852C108.04 248.861 108.058 248.873 108.074 248.889C108.09 248.905 108.102 248.923 108.111 248.944C108.119 248.964 108.124 248.986 108.124 249.009V253.603C108.124 253.625 108.119 253.647 108.111 253.668C108.102 253.688 108.09 253.707 108.074 253.722C108.058 253.738 108.04 253.751 108.019 253.759C107.999 253.767 107.976 253.772 107.954 253.771H107.297C107.275 253.771 107.254 253.767 107.234 253.759C107.214 253.75 107.196 253.738 107.181 253.722Z" fill="white"/>
<path d="M117.783 253.321C117.474 252.973 117.305 252.518 117.278 251.954C117.278 251.827 117.271 251.611 117.271 251.306C117.271 251.001 117.271 250.775 117.278 250.643C117.302 250.089 117.471 249.638 117.786 249.291C118.101 248.944 118.568 248.77 119.187 248.77C119.808 248.77 120.277 248.943 120.593 249.291C120.91 249.639 121.078 250.09 121.1 250.643C121.109 250.907 121.114 251.128 121.114 251.306C121.114 251.484 121.109 251.7 121.1 251.954C121.071 252.517 120.903 252.972 120.596 253.321C120.289 253.669 119.82 253.843 119.19 253.842C118.559 253.842 118.09 253.669 117.783 253.321ZM119.843 252.732C119.989 252.543 120.067 252.271 120.075 251.919C120.08 251.783 120.083 251.573 120.083 251.292C120.083 251.011 120.083 250.805 120.075 250.679C120.067 250.336 119.989 250.068 119.843 249.875C119.698 249.683 119.479 249.584 119.187 249.579C118.895 249.574 118.678 249.683 118.532 249.875C118.386 250.068 118.31 250.336 118.3 250.679C118.295 250.805 118.294 251.01 118.294 251.292C118.294 251.574 118.294 251.784 118.3 251.919C118.31 252.271 118.387 252.542 118.532 252.732C118.677 252.923 118.895 253.018 119.187 253.018C119.479 253.018 119.698 252.923 119.843 252.733V252.732Z" fill="white"/>
<path d="M123.548 253.722C123.532 253.707 123.52 253.688 123.511 253.668C123.503 253.647 123.498 253.625 123.499 253.603V249.967L122.435 250.784C122.406 250.808 122.368 250.821 122.33 250.82C122.303 250.82 122.277 250.814 122.253 250.802C122.23 250.79 122.21 250.772 122.196 250.749L121.893 250.355C121.871 250.326 121.858 250.292 121.857 250.256C121.858 250.228 121.865 250.2 121.878 250.176C121.892 250.151 121.911 250.13 121.935 250.115L123.513 248.889C123.566 248.856 123.627 248.839 123.689 248.84H124.322C124.344 248.839 124.367 248.844 124.387 248.852C124.408 248.86 124.427 248.873 124.442 248.889C124.458 248.905 124.471 248.923 124.479 248.944C124.488 248.964 124.492 248.986 124.492 249.009V253.603C124.492 253.625 124.487 253.647 124.479 253.668C124.47 253.688 124.458 253.707 124.442 253.722C124.426 253.738 124.408 253.751 124.387 253.759C124.366 253.767 124.344 253.772 124.322 253.771H123.667C123.645 253.772 123.623 253.768 123.602 253.759C123.582 253.751 123.564 253.738 123.548 253.722Z" fill="white"/>
<path d="M126.102 253.321C125.794 252.973 125.626 252.518 125.598 251.954C125.594 251.827 125.592 251.611 125.592 251.306C125.592 251.001 125.594 250.78 125.598 250.643C125.622 250.089 125.791 249.638 126.106 249.291C126.421 248.944 126.888 248.77 127.507 248.77C128.128 248.77 128.597 248.943 128.913 249.291C129.23 249.639 129.399 250.09 129.42 250.643C129.43 250.907 129.435 251.128 129.435 251.306C129.435 251.484 129.43 251.7 129.42 251.954C129.392 252.517 129.224 252.972 128.917 253.321C128.61 253.669 128.141 253.843 127.511 253.842C126.88 253.842 126.41 253.669 126.102 253.321ZM128.163 252.732C128.309 252.545 128.386 252.274 128.395 251.919C128.4 251.783 128.402 251.573 128.402 251.292C128.402 251.011 128.402 250.805 128.395 250.679C128.386 250.336 128.309 250.068 128.163 249.875C128.016 249.683 127.798 249.584 127.507 249.579C127.216 249.585 126.998 249.683 126.852 249.875C126.707 250.068 126.629 250.335 126.62 250.679C126.615 250.805 126.613 251.01 126.613 251.292C126.613 251.574 126.613 251.784 126.62 251.919C126.629 252.271 126.707 252.542 126.852 252.732C126.998 252.923 127.216 253.018 127.507 253.018C127.799 253.018 128.017 252.923 128.163 252.733V252.732Z" fill="white"/>
<path d="M131.868 253.722C131.852 253.707 131.84 253.688 131.831 253.668C131.823 253.647 131.819 253.625 131.819 253.603V249.967L130.756 250.784C130.726 250.809 130.688 250.821 130.65 250.82C130.624 250.82 130.597 250.814 130.574 250.802C130.55 250.79 130.53 250.771 130.516 250.749L130.213 250.355C130.191 250.326 130.179 250.292 130.178 250.256C130.178 250.228 130.185 250.2 130.199 250.176C130.213 250.151 130.232 250.13 130.256 250.115L131.833 248.889C131.886 248.856 131.947 248.839 132.01 248.84H132.642C132.665 248.839 132.687 248.844 132.708 248.852C132.728 248.86 132.747 248.873 132.763 248.889C132.778 248.905 132.791 248.923 132.799 248.944C132.808 248.964 132.812 248.986 132.812 249.009V253.603C132.812 253.625 132.808 253.647 132.799 253.668C132.791 253.688 132.778 253.707 132.762 253.722C132.747 253.738 132.728 253.751 132.707 253.759C132.687 253.767 132.665 253.772 132.642 253.771H131.987C131.965 253.772 131.943 253.767 131.923 253.759C131.902 253.751 131.884 253.738 131.868 253.722Z" fill="white"/>
<path d="M114.326 217.632C114.631 217.573 115.246 217.531 115.824 217.531C116.532 217.531 116.967 217.596 117.339 217.802C117.696 217.982 117.956 218.31 117.956 218.745C117.956 219.179 117.689 219.575 117.112 219.775V219.789C117.698 219.94 118.132 220.351 118.132 220.974C118.132 221.41 117.921 221.753 117.599 221.995C117.227 222.276 116.603 222.431 115.584 222.431C115.164 222.436 114.745 222.412 114.328 222.361L114.326 217.632ZM115.475 219.474H115.856C116.464 219.474 116.791 219.24 116.791 218.882C116.791 218.524 116.494 218.325 115.969 218.325C115.805 218.322 115.64 218.332 115.477 218.353L115.475 219.474ZM115.475 221.609C115.624 221.623 115.775 221.628 115.925 221.624C116.45 221.624 116.909 221.438 116.909 220.931C116.909 220.444 116.447 220.253 115.867 220.253H115.472L115.475 221.609Z" fill="white"/>
<path d="M120.092 221.15L119.726 222.384H118.523L120.092 217.57H121.612L123.203 222.384H121.955L121.56 221.15H120.092ZM121.392 220.335L121.073 219.312C120.983 219.031 120.892 218.671 120.815 218.384H120.795C120.718 218.671 120.644 219.034 120.561 219.312L120.254 220.335H121.392Z" fill="white"/>
<path d="M123.889 222.384V217.571H125.244L126.308 219.336C126.624 219.865 126.904 220.417 127.146 220.985H127.168C127.094 220.318 127.061 219.647 127.069 218.976V217.57H128.135V222.384H126.917L125.821 220.526C125.495 219.976 125.197 219.409 124.931 218.828L124.909 218.834C124.939 219.467 124.955 220.148 124.955 220.933V222.384L123.889 222.384Z" fill="white"/>
<path d="M129.139 217.57H130.29V219.698H130.312C130.425 219.512 130.548 219.34 130.663 219.169L131.828 217.57H133.25L131.55 219.62L133.338 222.384H131.986L130.73 220.306L130.29 220.813V222.384H129.139V217.57Z" fill="white"/>
<path d="M138.434 269.276V270.829C138.435 270.891 138.424 270.951 138.402 271.008C138.379 271.065 138.345 271.116 138.302 271.16C138.258 271.203 138.207 271.237 138.15 271.26C138.093 271.282 138.032 271.293 137.971 271.292H125.724C125.664 271.292 125.603 271.28 125.547 271.257C125.491 271.234 125.44 271.2 125.397 271.157C125.354 271.114 125.32 271.063 125.297 271.007C125.274 270.95 125.262 270.89 125.262 270.829V269.276C125.264 269.154 125.314 269.038 125.4 268.951C125.486 268.865 125.602 268.815 125.724 268.813H137.971C138.032 268.812 138.092 268.824 138.149 268.848C138.205 268.871 138.256 268.905 138.299 268.948C138.342 268.991 138.376 269.042 138.399 269.098C138.422 269.155 138.434 269.215 138.434 269.276Z" fill="white"/>
<path d="M138.433 264.267V265.822C138.434 265.883 138.423 265.944 138.4 266C138.378 266.057 138.344 266.109 138.3 266.152C138.257 266.195 138.206 266.229 138.149 266.252C138.092 266.275 138.031 266.286 137.97 266.284H117.989C117.928 266.286 117.867 266.275 117.81 266.252C117.753 266.229 117.701 266.195 117.658 266.152C117.615 266.109 117.581 266.057 117.558 266C117.535 265.944 117.524 265.883 117.526 265.822V264.267C117.525 264.206 117.537 264.146 117.561 264.09C117.584 264.034 117.618 263.983 117.661 263.94C117.704 263.897 117.755 263.863 117.811 263.84C117.868 263.816 117.928 263.805 117.989 263.805H137.97C138.031 263.805 138.091 263.817 138.147 263.84C138.203 263.863 138.254 263.897 138.297 263.94C138.34 263.983 138.375 264.034 138.398 264.09C138.421 264.146 138.433 264.206 138.433 264.267Z" fill="white"/>
<g opacity="0.1">
<path d="M145.902 214.4V273.351C145.902 276.6 143.266 279.265 140.011 279.265H118.608C117.443 279.27 116.289 279.045 115.212 278.602C114.135 278.16 113.156 277.508 112.332 276.686C111.508 275.863 110.854 274.885 110.41 273.809C109.965 272.733 109.737 271.579 109.74 270.415V208.48H140.011C143.266 208.48 145.902 211.127 145.902 214.4Z" fill="#C0C0C5"/>
</g>
<path d="M228.974 89.7055V270.416C228.974 275.327 224.976 279.266 220.117 279.266H122.54C121.376 279.271 120.222 279.046 119.144 278.604C118.067 278.161 117.088 277.51 116.264 276.687C115.44 275.864 114.786 274.887 114.341 273.81C113.896 272.734 113.669 271.581 113.672 270.416V89.7055C113.672 84.8591 117.616 80.8555 122.54 80.8555H220.117C224.979 80.8527 228.974 84.8598 228.974 89.7055Z" fill="#020517"/>
<path d="M225.28 100.518V270.42C225.277 271.786 224.731 273.096 223.763 274.06C222.795 275.025 221.484 275.566 220.118 275.565H122.536C119.64 275.565 117.355 273.298 117.355 270.42V100.518C117.359 99.1465 117.907 97.833 118.878 96.8653C119.849 95.8975 121.165 95.3545 122.536 95.3555H220.118C222.908 95.3555 225.28 97.7274 225.28 100.518Z" fill="white"/>
<g opacity="0.05">
<path d="M228.975 116.902V261.732H146.326C145.057 261.73 143.84 261.224 142.943 260.327C142.046 259.429 141.541 258.213 141.539 256.943V177.876L122.947 177.935C124.554 177.927 126.093 177.282 127.225 176.141C128.357 175.001 128.99 173.457 128.985 171.85L128.602 122.616C128.599 121.107 129.194 119.658 130.258 118.588C131.321 117.518 132.766 116.914 134.275 116.908C136.358 116.899 124.27 116.904 228.975 116.902Z" fill="#C0C0C5"/>
</g>
<path d="M160.972 90.6768C161.917 89.7313 161.917 88.1984 160.972 87.2528C160.026 86.3073 158.493 86.3073 157.548 87.2528C156.602 88.1984 156.602 89.7313 157.548 90.6768C158.493 91.6224 160.026 91.6224 160.972 90.6768Z" fill="white"/>
<path d="M185.806 88.9721C185.806 89.19 185.764 89.4058 185.681 89.6071C185.598 89.8085 185.476 89.9915 185.322 90.1455C185.167 90.2996 184.984 90.4216 184.783 90.5048C184.582 90.5879 184.366 90.6303 184.148 90.6298H165.484C165.048 90.6208 164.633 90.4413 164.328 90.1298C164.023 89.8182 163.852 89.3995 163.852 88.9633C163.852 88.5272 164.023 88.1084 164.328 87.7969C164.633 87.4853 165.048 87.3058 165.484 87.2969H184.148C184.59 87.2997 185.013 87.4776 185.323 87.7917C185.634 88.1058 185.808 88.5303 185.806 88.9721Z" fill="white"/>
<path d="M127.068 174.075L239.507 173.715C239.982 173.715 240.453 173.621 240.892 173.439C241.332 173.256 241.73 172.988 242.065 172.651C242.401 172.314 242.666 171.913 242.846 171.473C243.026 171.033 243.117 170.561 243.114 170.086L242.718 116.339C242.718 114.349 241.091 113.051 239.089 113.051H138.397C136.887 113.056 135.442 113.66 134.378 114.731C133.314 115.801 132.718 117.25 132.722 118.759L133.106 167.997C133.11 169.603 132.477 171.145 131.345 172.285C130.213 173.424 128.675 174.068 127.068 174.075Z" fill="#020517"/>
<path d="M127.068 174.373V173.782C128.597 173.776 130.061 173.162 131.138 172.077C132.215 170.993 132.817 169.524 132.813 167.996L132.427 118.76C132.423 117.172 133.049 115.647 134.168 114.521C135.288 113.394 136.809 112.759 138.397 112.754H239.088C241.362 112.754 243.013 114.261 243.013 116.339L243.409 170.084C243.412 170.598 243.313 171.108 243.118 171.584C242.924 172.061 242.637 172.494 242.274 172.859C241.911 173.224 241.48 173.513 241.005 173.711C240.53 173.909 240.021 174.01 239.506 174.011L127.068 174.374V174.373ZM138.396 113.344C136.965 113.349 135.594 113.922 134.585 114.937C133.576 115.952 133.012 117.326 133.016 118.758L133.401 167.994C133.404 169.206 133.061 170.394 132.413 171.418C131.764 172.442 130.836 173.259 129.739 173.774L239.505 173.423C239.942 173.423 240.374 173.337 240.777 173.169C241.181 173.002 241.547 172.756 241.855 172.446C242.163 172.137 242.407 171.769 242.572 171.365C242.737 170.96 242.821 170.527 242.818 170.091L242.423 116.344C242.423 114.608 241.017 113.349 239.088 113.349L138.396 113.344Z" fill="#020517"/>
<path d="M255.667 117.82V253.087C255.668 254.356 255.165 255.573 254.268 256.471C253.372 257.368 252.156 257.873 250.887 257.874H150.446C149.177 257.872 147.961 257.367 147.064 256.469C146.166 255.572 145.661 254.356 145.659 253.087V119.095C145.66 118.301 145.505 117.513 145.202 116.779C144.899 116.044 144.454 115.376 143.892 114.814C143.331 114.251 142.664 113.805 141.929 113.5C141.195 113.196 140.408 113.039 139.613 113.039H250.89C251.518 113.039 252.14 113.162 252.72 113.403C253.3 113.643 253.826 113.995 254.27 114.439C254.714 114.883 255.066 115.41 255.305 115.991C255.545 116.571 255.668 117.192 255.667 117.82Z" fill="white"/>
<path d="M250.889 258.174H150.448C149.1 258.173 147.808 257.637 146.855 256.684C145.902 255.73 145.366 254.438 145.364 253.09V119.096C145.364 117.571 144.759 116.108 143.682 115.028C142.604 113.948 141.143 113.34 139.617 113.337V112.746H250.889C252.234 112.748 253.523 113.282 254.474 114.233C255.425 115.184 255.96 116.473 255.962 117.818V253.088C255.962 254.435 255.429 255.727 254.478 256.68C253.527 257.634 252.236 258.171 250.889 258.174ZM142.285 113.339C143.381 113.85 144.309 114.664 144.959 115.684C145.609 116.704 145.954 117.889 145.955 119.098V253.088C145.956 254.279 146.43 255.421 147.273 256.264C148.115 257.106 149.257 257.58 150.448 257.582H250.889C252.079 257.579 253.219 257.104 254.059 256.262C254.9 255.419 255.371 254.278 255.371 253.088V117.82C255.37 116.632 254.897 115.493 254.057 114.653C253.217 113.813 252.078 113.34 250.889 113.339H142.285Z" fill="#020517"/>
<path d="M238.473 122.316H162.938V133.647H238.473V122.316Z" fill="#0A6EF0"/>
<path d="M236.394 138.449H166.357V140.072H236.394V138.449Z" fill="#0A6EF0"/>
<path d="M213.691 143.383H166.357V145.005H213.691V143.383Z" fill="#0A6EF0"/>
<path d="M236.395 143.383H218.943V145.005H236.395V143.383Z" fill="#0A6EF0"/>
<path d="M183.189 148.32H166.357V149.944H183.189V148.32Z" fill="#0A6EF0"/>
<path d="M217.866 148.32H189.137V149.944H217.866V148.32Z" fill="#0A6EF0"/>
<path d="M172.571 157.945V169.896C172.572 170.182 172.517 170.465 172.408 170.729C172.3 170.993 172.14 171.233 171.939 171.435C171.737 171.638 171.498 171.799 171.234 171.908C170.97 172.018 170.688 172.075 170.402 172.075H158.447C157.869 172.075 157.315 171.846 156.906 171.437C156.497 171.028 156.268 170.474 156.268 169.896V157.945C156.268 157.367 156.497 156.813 156.906 156.404C157.315 155.995 157.869 155.766 158.447 155.766H170.402C170.688 155.766 170.97 155.823 171.234 155.932C171.498 156.042 171.737 156.203 171.939 156.405C172.14 156.608 172.3 156.848 172.408 157.112C172.517 157.376 172.572 157.659 172.571 157.945Z" fill="#020517"/>
<path d="M162.249 167.649L160.172 165.571C160.086 165.49 160.018 165.392 159.972 165.284C159.925 165.176 159.9 165.059 159.898 164.941C159.897 164.823 159.919 164.706 159.964 164.597C160.008 164.488 160.074 164.389 160.158 164.305C160.241 164.222 160.34 164.156 160.449 164.111C160.559 164.067 160.676 164.044 160.793 164.046C160.911 164.047 161.028 164.072 161.136 164.118C161.244 164.165 161.342 164.233 161.424 164.318L162.875 165.77L168.456 160.189C168.623 160.023 168.848 159.93 169.082 159.93C169.317 159.93 169.542 160.023 169.709 160.189C169.875 160.355 169.968 160.58 169.968 160.815C169.968 161.05 169.875 161.275 169.709 161.441L163.501 167.649C163.419 167.731 163.321 167.796 163.214 167.841C163.106 167.885 162.991 167.908 162.875 167.908C162.759 167.908 162.644 167.885 162.536 167.841C162.429 167.796 162.331 167.731 162.249 167.649Z" fill="white"/>
<path d="M244.054 159.707H180.256V162.539H244.054V159.707Z" fill="#0A6EF0"/>
<path d="M199.776 165.301H180.256V168.132H199.776V165.301Z" fill="#0A6EF0"/>
<path d="M215.021 165.301H203.52V168.132H215.021V165.301Z" fill="#0A6EF0"/>
<path d="M225.705 165.301H217.811V168.132H225.705V165.301Z" fill="#0A6EF0"/>
<path d="M172.571 179.129V191.08C172.572 191.365 172.517 191.648 172.408 191.912C172.3 192.176 172.14 192.417 171.939 192.619C171.737 192.821 171.498 192.982 171.234 193.092C170.97 193.202 170.688 193.258 170.402 193.259H158.447C157.869 193.259 157.315 193.029 156.906 192.621C156.497 192.212 156.268 191.658 156.268 191.08V179.129C156.268 178.551 156.497 177.996 156.906 177.588C157.315 177.179 157.869 176.949 158.447 176.949H170.402C170.688 176.95 170.97 177.006 171.234 177.116C171.498 177.226 171.737 177.387 171.939 177.589C172.14 177.791 172.3 178.032 172.408 178.296C172.517 178.56 172.572 178.843 172.571 179.129Z" fill="#020517"/>
<path d="M162.249 188.837L160.171 186.76C160.089 186.678 160.024 186.58 159.98 186.473C159.935 186.365 159.912 186.25 159.912 186.134C159.912 186.017 159.935 185.902 159.98 185.795C160.024 185.688 160.089 185.59 160.171 185.508C160.254 185.425 160.351 185.36 160.459 185.316C160.566 185.271 160.681 185.248 160.797 185.248C160.914 185.248 161.029 185.271 161.136 185.316C161.244 185.36 161.341 185.425 161.423 185.508L162.875 186.959L168.458 181.38C168.541 181.298 168.638 181.233 168.746 181.188C168.853 181.144 168.968 181.121 169.084 181.121C169.201 181.121 169.316 181.144 169.423 181.188C169.531 181.233 169.628 181.298 169.71 181.38C169.793 181.463 169.858 181.56 169.902 181.668C169.947 181.775 169.97 181.89 169.97 182.006C169.97 182.123 169.947 182.238 169.902 182.345C169.858 182.453 169.793 182.55 169.71 182.632L163.503 188.84C163.421 188.922 163.323 188.988 163.215 189.032C163.107 189.076 162.992 189.099 162.875 189.099C162.759 189.099 162.643 189.075 162.536 189.031C162.428 188.986 162.331 188.92 162.249 188.837Z" fill="white"/>
<path d="M244.054 180.895H180.256V183.726H244.054V180.895Z" fill="#0A6EF0"/>
<path d="M196.918 186.484H180.256V189.316H196.918V186.484Z" fill="#0A6EF0"/>
<path d="M210.963 186.484H201.545V189.316H210.963V186.484Z" fill="#0A6EF0"/>
<path d="M244.97 248.004H156.443C155.83 248.003 155.242 247.759 154.809 247.326C154.375 246.892 154.132 246.305 154.131 245.692V203.78C154.132 203.167 154.375 202.58 154.809 202.146C155.242 201.713 155.83 201.469 156.443 201.469H244.97C245.583 201.469 246.171 201.713 246.604 202.147C247.038 202.58 247.282 203.167 247.283 203.78V245.692C247.282 246.305 247.038 246.892 246.605 247.326C246.171 247.759 245.583 248.003 244.97 248.004ZM156.443 202.649C156.143 202.649 155.855 202.769 155.643 202.981C155.431 203.193 155.312 203.48 155.312 203.78V245.692C155.312 245.992 155.431 246.279 155.643 246.491C155.855 246.703 156.143 246.823 156.443 246.823H244.97C245.27 246.822 245.558 246.703 245.77 246.491C245.982 246.279 246.101 245.992 246.102 245.692V203.78C246.101 203.48 245.982 203.193 245.77 202.981C245.558 202.769 245.27 202.649 244.97 202.649H156.443Z" fill="#0A6EF0"/>
<path d="M246.693 210.182V203.78C246.693 203.324 246.511 202.886 246.188 202.563C245.866 202.241 245.428 202.059 244.972 202.059H156.444C156.218 202.058 155.994 202.103 155.785 202.189C155.576 202.276 155.386 202.402 155.226 202.562C155.066 202.722 154.94 202.912 154.853 203.121C154.767 203.33 154.722 203.554 154.723 203.78V210.182H246.693Z" fill="#0A6EF0"/>
<path d="M214.904 215.379H159.117V217.591H214.904V215.379Z" fill="#0A6EF0"/>
<path d="M214.904 221.285H159.117V223.497H214.904V221.285Z" fill="#0A6EF0"/>
<path d="M214.904 227.195H159.117V229.407H214.904V227.195Z" fill="#0A6EF0"/>
<path d="M214.904 233.102H159.117V235.313H214.904V233.102Z" fill="#0A6EF0"/>
<path d="M214.904 239.008H159.117V241.219H214.904V239.008Z" fill="#0A6EF0"/>
<path d="M221.492 217.59H242.297V215.378H221.492V217.59Z" fill="#0A6EF0"/>
<path d="M221.492 223.5H242.297V221.288H221.492V223.5Z" fill="#0A6EF0"/>
<path d="M221.492 229.406H242.297V227.195H221.492V229.406Z" fill="#0A6EF0"/>
<path d="M221.492 235.312H242.297V233.101H221.492V235.312Z" fill="#0A6EF0"/>
<path d="M221.492 241.223H242.297V239.011H221.492V241.223Z" fill="#0A6EF0"/>
<path d="M235.809 160.375C235.809 160.375 234.032 160.46 233.7 163.421C233.259 167.389 238.139 166.499 238.139 166.499C238.139 166.499 267.018 192.044 275.361 187.354C279.617 184.959 276.861 167.887 276.861 167.887L269.346 161.944L265.72 171.997L240.645 159.797C240.645 159.797 240.934 155.475 239.331 155.613C237.77 155.745 238.496 158.572 238.539 158.752C238.269 158.537 231.707 153.242 230.488 154.464C229.246 155.707 235.809 160.375 235.809 160.375Z" fill="white"/>
<path d="M272.868 188.219C262.612 188.219 240.056 168.578 238.052 166.814C237.479 166.895 235.385 167.099 234.196 165.99C233.549 165.387 233.285 164.514 233.41 163.389C233.637 161.343 234.527 160.562 235.153 160.264C233.767 159.239 230.166 156.44 230.041 154.947C230.026 154.821 230.04 154.694 230.081 154.574C230.123 154.454 230.191 154.345 230.28 154.255C231.399 153.135 235.423 155.938 238.099 158.031C237.992 157.278 237.985 156.385 238.388 155.829C238.494 155.681 238.631 155.56 238.79 155.472C238.949 155.384 239.125 155.333 239.306 155.323C239.463 155.308 239.621 155.328 239.769 155.382C239.916 155.436 240.05 155.523 240.16 155.635C241.019 156.479 240.984 158.869 240.951 159.621L265.556 171.591L269.071 161.846C269.087 161.802 269.113 161.762 269.148 161.73C269.182 161.698 269.223 161.675 269.268 161.662C269.313 161.65 269.361 161.648 269.407 161.657C269.452 161.666 269.496 161.686 269.533 161.714L277.048 167.657C277.106 167.703 277.144 167.769 277.156 167.842C277.27 168.545 279.893 185.145 275.509 187.613C274.766 188.029 273.876 188.219 272.868 188.219ZM238.143 166.206C238.215 166.205 238.284 166.232 238.338 166.279C238.626 166.533 267.145 191.635 275.216 187.099C279.071 184.93 276.814 169.524 276.588 168.048L269.488 162.431L265.998 172.1C265.984 172.139 265.962 172.174 265.933 172.204C265.904 172.234 265.87 172.257 265.831 172.273C265.793 172.289 265.752 172.296 265.71 172.295C265.669 172.294 265.628 172.284 265.591 172.266L240.516 160.067C240.463 160.041 240.419 160 240.389 159.95C240.36 159.899 240.346 159.84 240.35 159.782C240.404 158.964 240.402 156.701 239.746 156.056C239.696 156.003 239.635 155.962 239.568 155.937C239.5 155.912 239.427 155.902 239.356 155.91C239.259 155.912 239.164 155.937 239.079 155.983C238.993 156.029 238.92 156.093 238.863 156.172C238.506 156.665 238.605 157.784 238.818 158.665C238.833 158.726 238.829 158.79 238.806 158.849C238.784 158.908 238.744 158.958 238.692 158.994C238.642 159.028 238.582 159.046 238.52 159.044C238.459 159.043 238.4 159.022 238.352 158.985C234.555 155.944 231.273 154.092 230.695 154.672C230.666 154.701 230.644 154.736 230.632 154.775C230.62 154.815 230.617 154.856 230.624 154.897C230.716 156.004 233.955 158.693 235.975 160.133C236.025 160.169 236.062 160.219 236.082 160.276C236.102 160.334 236.104 160.397 236.087 160.455C236.07 160.514 236.035 160.566 235.987 160.604C235.94 160.642 235.881 160.665 235.82 160.668C235.75 160.673 234.286 160.809 233.992 163.452C233.889 164.379 234.092 165.087 234.594 165.556C235.736 166.621 238.061 166.212 238.085 166.208C238.104 166.206 238.124 166.205 238.143 166.206Z" fill="#020517"/>
<path d="M269.603 278.662V276.719H281.195C281.347 280.475 281.645 287.558 281.733 287.558H262.872C262.229 281.36 269.603 278.662 269.603 278.662Z" fill="#0A6EF0"/>
<path d="M263.128 284.863C262.862 285.736 262.774 286.653 262.869 287.56H281.731C281.697 287.56 281.628 286.442 281.55 284.863H263.128Z" fill="#020517"/>
<path d="M311.62 278.662V276.719H323.212C323.364 280.475 323.661 287.558 323.75 287.558H304.887C304.246 281.36 311.62 278.662 311.62 278.662Z" fill="#0A6EF0"/>
<path d="M305.148 284.863C304.882 285.736 304.794 286.653 304.888 287.56H323.751C323.716 287.56 323.648 286.442 323.569 284.863H305.148Z" fill="#020517"/>
<path d="M323.752 278.712C323.752 279.619 310.167 279.619 310.167 278.712L293.299 223.193L281.93 277.997C281.93 278.952 268.357 278.952 268.357 277.997L273.911 197.574H311.609L323.752 278.712Z" fill="#020517"/>
<path d="M281.776 144.434C281.776 144.434 272.673 146.702 269.488 155.026C268.618 157.298 265.861 168.338 265.861 168.338C268.192 171.378 275.131 172.004 282.248 172.537L281.776 144.434Z" fill="#0A6EF0"/>
<path d="M313.147 145.728C310.582 141.417 281.789 140.672 276.853 147.478C271.752 154.508 272.834 201.352 272.834 201.352C272.483 206.106 314.569 206.325 314.92 201.571C314.92 201.571 315.795 150.175 313.147 145.728Z" fill="#0A6EF0"/>
<path d="M297.389 202.541H287.336C287.198 202.541 287.063 202.503 286.946 202.429C286.829 202.356 286.735 202.252 286.674 202.128L279.293 186.985C279.238 186.872 279.213 186.748 279.22 186.623C279.226 186.499 279.265 186.378 279.331 186.272C279.397 186.166 279.489 186.079 279.598 186.018C279.707 185.958 279.83 185.926 279.955 185.926H290.008C290.146 185.926 290.281 185.965 290.398 186.038C290.515 186.111 290.609 186.216 290.669 186.34L298.051 201.482C298.106 201.595 298.131 201.719 298.124 201.844C298.118 201.969 298.08 202.09 298.013 202.195C297.947 202.301 297.855 202.389 297.746 202.449C297.637 202.51 297.514 202.541 297.389 202.541Z" fill="white"/>
<path d="M297.388 202.834H287.335C287.142 202.833 286.953 202.779 286.789 202.676C286.625 202.574 286.493 202.428 286.408 202.255L279.026 187.112C278.95 186.954 278.914 186.78 278.923 186.606C278.932 186.431 278.986 186.261 279.079 186.113C279.171 185.965 279.3 185.842 279.453 185.758C279.607 185.673 279.779 185.629 279.954 185.629H290.006C290.2 185.63 290.389 185.684 290.552 185.786C290.716 185.889 290.848 186.034 290.934 186.207L298.315 201.351C298.392 201.508 298.427 201.682 298.418 201.857C298.409 202.032 298.355 202.201 298.263 202.349C298.17 202.498 298.041 202.62 297.888 202.705C297.735 202.79 297.563 202.834 297.388 202.834ZM279.954 186.219C279.879 186.219 279.806 186.238 279.74 186.274C279.675 186.31 279.62 186.362 279.58 186.425C279.541 186.489 279.518 186.561 279.514 186.635C279.51 186.71 279.525 186.784 279.557 186.851L286.939 201.994C286.975 202.068 287.031 202.131 287.102 202.174C287.172 202.218 287.252 202.241 287.335 202.242H297.388C297.463 202.242 297.536 202.223 297.602 202.187C297.667 202.151 297.722 202.098 297.762 202.035C297.801 201.972 297.824 201.899 297.828 201.825C297.832 201.75 297.817 201.676 297.784 201.609L290.403 186.466C290.366 186.392 290.31 186.33 290.24 186.286C290.17 186.242 290.089 186.218 290.006 186.218L279.954 186.219Z" fill="#020517"/>
<path d="M327.705 176.182C327.354 181.872 300.306 194.555 300.306 194.555C300.306 194.555 294.093 203.637 288.912 199.231C283.732 194.824 293.632 192.407 293.632 192.407L292.284 189.641C292.35 188.033 296.431 190.227 296.431 190.227L313.651 175.024L309.653 168.09L323.093 161.949C323.093 161.949 327.921 172.658 327.705 176.182Z" fill="white"/>
<path d="M288.721 199.453C287.448 198.367 286.93 197.283 287.181 196.229C287.733 193.905 291.941 192.565 293.21 192.21L292.019 189.767C291.998 189.724 291.987 189.675 291.988 189.627C292.006 189.211 292.225 189.001 292.405 188.899C293.326 188.373 295.605 189.461 296.391 189.869L313.275 174.959L309.399 168.232C309.378 168.196 309.366 168.157 309.361 168.116C309.357 168.075 309.361 168.034 309.374 167.994C309.386 167.955 309.407 167.919 309.434 167.888C309.461 167.858 309.494 167.833 309.532 167.816L322.972 161.675C323.043 161.642 323.125 161.64 323.198 161.667C323.272 161.695 323.331 161.75 323.364 161.822C323.562 162.262 328.215 172.639 328 176.195C327.645 181.901 302.367 193.905 300.503 194.783C300.046 195.433 296.602 200.158 292.7 200.68C291.191 200.885 289.86 200.422 288.721 199.453ZM292.587 189.583L293.899 192.274C293.918 192.314 293.928 192.358 293.929 192.402C293.929 192.446 293.919 192.489 293.901 192.529C293.882 192.569 293.855 192.604 293.82 192.633C293.786 192.661 293.747 192.681 293.704 192.691C293.65 192.704 288.311 194.033 287.757 196.366C287.562 197.186 288.016 198.073 289.106 199.003C290.161 199.9 291.34 200.269 292.621 200.098C296.464 199.584 300.029 194.437 300.065 194.385C300.095 194.342 300.135 194.307 300.183 194.284C300.452 194.158 327.074 181.613 327.413 176.161C327.603 173.057 323.692 164.023 322.949 162.339L310.076 168.221L313.911 174.873C313.945 174.932 313.958 175.001 313.947 175.068C313.936 175.135 313.902 175.197 313.851 175.242L296.63 190.447C296.584 190.486 296.528 190.511 296.468 190.518C296.408 190.525 296.348 190.514 296.294 190.485C295.123 189.853 293.235 189.107 292.696 189.412C292.665 189.43 292.639 189.454 292.62 189.484C292.6 189.514 292.589 189.548 292.585 189.583H292.587Z" fill="#020517"/>
<path d="M311.483 144.5C311.824 144.745 315.405 146.107 318.287 150.522C320.359 153.694 324.594 162.614 324.594 162.614C325.839 164.112 312.581 174.195 311.057 172.254C311.057 172.254 305.073 162.974 304.841 157.983C304.545 151.6 311.483 144.5 311.483 144.5Z" fill="#0A6EF0"/>
<path d="M311.722 172.77C311.357 172.77 311.086 172.663 310.918 172.45C310.655 172.045 304.872 163.02 304.639 158.012C304.637 157.973 304.643 157.935 304.656 157.898C304.669 157.862 304.689 157.828 304.715 157.8C304.741 157.771 304.773 157.748 304.808 157.731C304.843 157.715 304.881 157.705 304.92 157.703C304.958 157.702 304.997 157.707 305.033 157.721C305.07 157.734 305.103 157.754 305.132 157.78C305.161 157.806 305.184 157.837 305.2 157.872C305.217 157.907 305.226 157.945 305.228 157.984C305.454 162.835 311.338 172.015 311.397 172.107C311.438 172.157 311.598 172.191 311.819 172.177C314.388 172.01 322.434 166.372 324.121 163.56C324.14 163.525 324.166 163.494 324.197 163.469C324.228 163.444 324.264 163.426 324.303 163.416C324.341 163.405 324.382 163.402 324.421 163.408C324.461 163.413 324.499 163.426 324.533 163.447C324.567 163.467 324.597 163.495 324.62 163.527C324.644 163.559 324.66 163.596 324.669 163.635C324.678 163.674 324.679 163.714 324.672 163.753C324.664 163.792 324.649 163.83 324.627 163.863C322.841 166.846 314.608 172.587 311.86 172.766C311.809 172.769 311.765 172.77 311.722 172.77Z" fill="#020517"/>
<path d="M290.117 137.965C290.117 137.965 288.795 140.535 287.319 142.826C286.208 144.551 288.304 147.828 290.211 148.828C293.324 150.457 299.408 143.101 299.408 143.101L299.652 126.879L290.117 137.965Z" fill="white"/>
<path d="M290.077 149.088C288.671 148.351 287.281 146.57 286.852 144.945C286.615 144.046 286.691 143.258 287.073 142.665C288.524 140.415 289.843 137.854 289.856 137.829L289.895 137.772L299.948 126.082V142.581L299.884 142.661C297.95 145.097 292.866 150.551 290.077 149.088ZM290.365 138.131C290.208 138.432 288.949 140.844 287.569 142.986C287.204 143.554 287.288 144.283 287.422 144.794C287.808 146.251 289.093 147.908 290.35 148.566C292.702 149.794 297.584 144.589 299.358 142.375V127.672L290.365 138.131Z" fill="#020517"/>
<path d="M299.276 124.759C299.118 124.979 297.65 140.055 288.574 139.034C279.498 138.014 281.861 119.262 285.914 115.106C289.967 110.95 298.24 114.676 298.24 114.676L300.953 121.208L299.276 124.759Z" fill="white"/>
<path d="M289.42 139.381C289.126 139.381 288.832 139.364 288.54 139.33C285.955 139.04 284.028 137.316 282.966 134.344C280.768 128.188 282.675 118.008 285.702 114.903C289.849 110.649 298.015 114.254 298.361 114.411L298.467 114.459L301.275 121.22L299.547 124.875C299.531 124.939 299.507 125.091 299.469 125.314C297.941 134.434 294.389 139.38 289.42 139.381ZM291.308 113.446C289.416 113.446 287.503 113.902 286.125 115.315C283.27 118.243 281.427 128.277 283.524 134.145C284.519 136.93 286.228 138.476 288.607 138.744C293.75 139.326 297.308 134.646 298.889 125.218C298.959 124.782 298.978 124.688 299.018 124.618L300.631 121.203L298.014 114.903C297.415 114.651 294.387 113.446 291.308 113.446Z" fill="#020517"/>
<path d="M292.356 124.905C292.337 125.403 292.038 125.795 291.688 125.782C291.339 125.769 291.071 125.354 291.091 124.857C291.111 124.359 291.409 123.967 291.758 123.981C292.107 123.994 292.375 124.408 292.356 124.905Z" fill="#020517"/>
<path d="M286.357 124.859C286.338 125.357 286.04 125.749 285.69 125.736C285.341 125.722 285.074 125.308 285.093 124.811C285.112 124.314 285.411 123.921 285.76 123.934C286.109 123.947 286.377 124.358 286.357 124.859Z" fill="#020517"/>
<path d="M288.682 130.606C288.596 130.536 288.479 130.518 288.108 130.47C287.661 130.4 287.355 130.161 287.288 129.83C287.211 129.433 287.499 129.127 287.696 128.929C288.09 128.514 288.376 128.008 288.528 127.456C288.68 126.905 288.694 126.324 288.569 125.766L289.143 125.625C289.29 126.277 289.274 126.955 289.098 127.6C288.921 128.244 288.589 128.836 288.131 129.322C288.006 129.452 287.85 129.615 287.868 129.709C287.882 129.779 288.024 129.854 288.198 129.88C288.516 129.921 288.809 129.943 289.053 130.14L288.682 130.606Z" fill="#020517"/>
<path d="M288.951 135.11L289.162 134.559C289.528 134.701 289.935 134.693 290.294 134.536C290.654 134.38 290.937 134.087 291.081 133.723L291.63 133.941C291.428 134.45 291.033 134.859 290.531 135.078C290.028 135.297 289.46 135.308 288.949 135.11H288.951Z" fill="#020517"/>
<path d="M280.698 117.621C281.086 117.86 281.498 118.056 281.927 118.208C285.499 119.387 295.167 117.176 295.45 118.549C295.735 119.9 296.321 127.993 296.944 126.996C298.119 125.115 298.552 122.004 298.622 127.394C298.579 129.4 299.181 132.443 299.181 132.443C304.371 132.302 309.33 120.146 304.236 119.305C304.236 119.305 305.782 116.896 304.821 114.741C303.863 112.569 297.031 100.652 283.951 109.82C283.702 109.497 281.363 106.732 280.391 108.707C279.517 110.522 278.025 115.954 280.698 117.621Z" fill="#020517"/>
<path d="M273.05 171.932H273.024C272.986 171.929 272.948 171.918 272.913 171.9C272.879 171.883 272.848 171.858 272.823 171.828C272.798 171.799 272.779 171.764 272.768 171.727C272.756 171.691 272.752 171.652 272.755 171.613L273.62 161.339C273.622 161.299 273.631 161.26 273.648 161.224C273.666 161.188 273.69 161.155 273.72 161.129C273.75 161.102 273.785 161.082 273.823 161.07C273.861 161.057 273.901 161.052 273.94 161.056C273.98 161.059 274.019 161.071 274.054 161.089C274.09 161.108 274.121 161.134 274.146 161.165C274.171 161.196 274.189 161.232 274.2 161.271C274.211 161.309 274.213 161.35 274.208 161.389L273.345 171.661C273.339 171.735 273.305 171.804 273.25 171.854C273.195 171.905 273.124 171.932 273.05 171.932Z" fill="#020517"/>
<path d="M110.525 142.769C118.877 142.769 125.648 135.999 125.648 127.646C125.648 119.294 118.877 112.523 110.525 112.523C102.173 112.523 95.4023 119.294 95.4023 127.646C95.4023 135.999 102.173 142.769 110.525 142.769Z" fill="#0A6EF0"/>
<path d="M110.525 139.066C116.832 139.066 121.945 133.953 121.945 127.646C121.945 121.339 116.832 116.227 110.525 116.227C104.218 116.227 99.1055 121.339 99.1055 127.646C99.1055 133.953 104.218 139.066 110.525 139.066Z" fill="#0A6EF0"/>
<g opacity="0.15">
<path d="M120.243 121.651C118.294 119.611 115.659 118.365 112.846 118.152C110.032 117.94 107.24 118.777 105.007 120.501C102.775 122.226 101.259 124.716 100.754 127.491C100.248 130.267 100.788 133.131 102.27 135.532C101.163 134.376 100.312 132.999 99.7726 131.492C99.2326 129.985 99.0156 128.381 99.1356 126.785C99.2556 125.189 99.7099 123.635 100.469 122.226C101.228 120.817 102.275 119.583 103.542 118.604C104.809 117.626 106.268 116.924 107.823 116.546C109.379 116.168 110.996 116.121 112.571 116.408C114.146 116.695 115.643 117.311 116.964 118.214C118.286 119.117 119.403 120.288 120.243 121.651Z" fill="#C0C0C5"/>
</g>
<path d="M113.912 131.432C113.617 131.866 113.209 132.21 112.732 132.429C112.176 132.689 111.574 132.835 110.962 132.86V133.894C110.964 133.952 110.954 134.009 110.932 134.063C110.911 134.117 110.879 134.166 110.838 134.207C110.75 134.285 110.637 134.33 110.519 134.331C110.401 134.332 110.287 134.291 110.198 134.214C110.155 134.173 110.123 134.123 110.101 134.067C110.08 134.012 110.07 133.953 110.073 133.894V132.86C109.06 132.8 108.065 132.568 107.13 132.175C107.012 132.125 106.911 132.041 106.839 131.935C106.755 131.818 106.715 131.676 106.724 131.532C106.733 131.389 106.792 131.253 106.89 131.148C106.944 131.088 107.011 131.041 107.085 131.009C107.159 130.978 107.24 130.963 107.32 130.965C107.415 130.965 107.51 130.985 107.596 131.023C108.378 131.372 109.218 131.57 110.073 131.606V128.256C109.503 128.112 108.945 127.922 108.406 127.688C107.965 127.493 107.578 127.196 107.277 126.821C106.975 126.446 106.825 125.972 106.825 125.4C106.821 124.909 106.949 124.426 107.196 124.002C107.464 123.555 107.846 123.188 108.304 122.938C108.793 122.657 109.383 122.487 110.073 122.429V121.409C110.071 121.289 110.115 121.174 110.198 121.088C110.237 121.045 110.286 121.011 110.34 120.989C110.394 120.966 110.452 120.956 110.51 120.957C110.57 120.957 110.629 120.968 110.684 120.99C110.739 121.013 110.789 121.046 110.831 121.088C110.873 121.13 110.906 121.18 110.929 121.235C110.951 121.29 110.962 121.349 110.962 121.409V122.414C111.914 122.453 112.759 122.613 113.497 122.895C113.769 122.992 113.904 123.186 113.904 123.477C113.904 123.633 113.848 123.783 113.745 123.899C113.694 123.961 113.629 124.01 113.556 124.043C113.483 124.075 113.403 124.091 113.323 124.088C113.242 124.083 113.163 124.064 113.09 124.03C112.404 123.792 111.687 123.66 110.962 123.637V127.107C111.557 127.239 112.139 127.419 112.704 127.646C113.156 127.834 113.554 128.132 113.862 128.513C114.172 128.897 114.328 129.404 114.328 130.035C114.333 130.532 114.188 131.019 113.912 131.432ZM108.64 126.289C108.965 126.523 109.444 126.722 110.075 126.886V123.681C109.492 123.76 109.026 123.937 108.676 124.213C108.509 124.339 108.374 124.503 108.283 124.692C108.191 124.881 108.147 125.089 108.152 125.298C108.151 125.726 108.313 126.056 108.638 126.289H108.64ZM113.017 129.944C113.017 129.565 112.845 129.271 112.501 129.063C112.156 128.854 111.644 128.658 110.963 128.473V131.606C112.332 131.509 113.016 130.956 113.016 129.946L113.017 129.944Z" fill="white"/>
<path d="M101.119 106.036C105.579 101.576 105.579 94.3457 101.119 89.8861C96.6594 85.4265 89.429 85.4265 84.9694 89.8861C80.5098 94.3457 80.5098 101.576 84.9694 106.036C89.429 110.495 96.6594 110.495 101.119 106.036Z" fill="#0A6EF0"/>
<path d="M99.1398 104.058C102.507 100.691 102.507 95.231 99.1398 91.8636C95.7723 88.4961 90.3125 88.4961 86.945 91.8636C83.5775 95.231 83.5775 100.691 86.945 104.058C90.3125 107.426 95.7723 107.426 99.1398 104.058Z" fill="#0A6EF0"/>
<g opacity="0.15">
<path d="M100.38 93.4336C98.9072 91.8974 96.9186 90.9602 94.7965 90.8021C92.6744 90.644 90.5689 91.2763 88.8849 92.5773C87.201 93.8782 86.0577 95.756 85.675 97.8493C85.2923 99.9425 85.6972 102.103 86.8119 103.916C85.9749 103.043 85.331 102.003 84.922 100.865C84.513 99.7269 84.348 98.5154 84.4379 97.3092C84.5277 96.1031 84.8704 94.9293 85.4435 93.8642C86.0166 92.7992 86.8075 91.8666 87.7646 91.1271C88.7217 90.3877 89.8237 89.8579 90.999 89.5721C92.1742 89.2864 93.3965 89.2512 94.5862 89.4687C95.776 89.6862 96.9067 90.1517 97.9048 90.8347C98.903 91.5178 99.7462 92.4033 100.38 93.4336Z" fill="#C0C0C5"/>
</g>
<path d="M95.6013 100.822C95.3791 101.149 95.0725 101.409 94.7141 101.575C94.2948 101.771 93.8408 101.881 93.3784 101.9V102.681C93.3798 102.725 93.3723 102.768 93.3564 102.809C93.3404 102.85 93.3164 102.887 93.2856 102.918C93.2527 102.949 93.2138 102.974 93.1711 102.99C93.1285 103.006 93.083 103.013 93.0375 103.011C92.9501 103.014 92.8652 102.982 92.8013 102.923C92.7694 102.891 92.7446 102.854 92.7285 102.812C92.7124 102.77 92.7053 102.726 92.7078 102.681V101.9C91.9431 101.855 91.1916 101.68 90.4856 101.383C90.3962 101.345 90.3197 101.282 90.2655 101.201C90.2024 101.113 90.1717 101.005 90.1787 100.897C90.1858 100.789 90.2301 100.686 90.3042 100.607C90.3449 100.561 90.3951 100.525 90.4511 100.501C90.5072 100.477 90.5679 100.465 90.629 100.466C90.7016 100.466 90.7734 100.481 90.8399 100.51C91.4298 100.773 92.0644 100.923 92.7099 100.95V98.4193C92.2789 98.311 91.8576 98.1676 91.4501 97.9905C91.1179 97.8434 90.8258 97.619 90.5981 97.336C90.3703 97.0548 90.2564 96.6972 90.2564 96.2632C90.2541 95.8929 90.3512 95.5287 90.5376 95.2087C90.7393 94.8711 91.028 94.5938 91.3735 94.4058C91.785 94.1808 92.241 94.0493 92.7092 94.0206V93.2473C92.7081 93.2027 92.7158 93.1584 92.7318 93.1167C92.7478 93.0751 92.7719 93.0371 92.8027 93.0048C92.8329 92.9727 92.8696 92.9473 92.9103 92.9304C92.951 92.9134 92.9948 92.9052 93.0389 92.9064C93.0838 92.9057 93.1285 92.9141 93.1701 92.931C93.2118 92.9479 93.2497 92.9729 93.2815 93.0047C93.3132 93.0365 93.3383 93.0744 93.3552 93.1161C93.3721 93.1577 93.3805 93.2023 93.3798 93.2473V94.0058C94.0334 94.0226 94.6799 94.1454 95.2941 94.3693C95.3879 94.3965 95.4696 94.455 95.5257 94.535C95.5817 94.6151 95.6086 94.7119 95.602 94.8094C95.6021 94.9268 95.5591 95.0401 95.4811 95.1278C95.4423 95.174 95.3934 95.2107 95.3382 95.235C95.283 95.2594 95.2229 95.2708 95.1626 95.2684C95.1016 95.2645 95.0418 95.2495 94.9862 95.2241C94.4688 95.0448 93.9272 94.9447 93.3798 94.9275V97.5454C93.8286 97.6453 94.2685 97.7814 94.6951 97.9525C95.0364 98.0944 95.3368 98.3194 95.569 98.607C95.8033 98.8966 95.9205 99.2798 95.9205 99.7564C95.9248 100.136 95.8134 100.508 95.6013 100.822ZM91.6209 96.9388C91.8665 97.1145 92.2276 97.2647 92.7043 97.3894V94.9697C92.2642 95.0282 91.9127 95.162 91.6498 95.3711C91.5233 95.4663 91.4214 95.5904 91.3526 95.733C91.2838 95.8756 91.2499 96.0325 91.254 96.1908C91.2473 96.3363 91.2774 96.4811 91.3415 96.6118C91.4057 96.7426 91.5018 96.855 91.6209 96.9388ZM94.925 99.6994C94.9275 99.5633 94.8923 99.4292 94.8233 99.3119C94.7543 99.1945 94.6543 99.0985 94.5342 99.0344C94.2741 98.8769 93.8872 98.7284 93.3735 98.5887V100.956C94.4079 100.881 94.925 100.462 94.925 99.6994Z" fill="white"/>
<path d="M74.5955 137.441C81.925 137.441 87.8667 131.499 87.8667 124.17C87.8667 116.84 81.925 110.898 74.5955 110.898C67.266 110.898 61.3242 116.84 61.3242 124.17C61.3242 131.499 67.266 137.441 74.5955 137.441Z" fill="#0A6EF0"/>
<path d="M74.5955 134.187C80.1301 134.187 84.6168 129.7 84.6168 124.166C84.6168 118.631 80.1301 114.145 74.5955 114.145C69.0609 114.145 64.5742 118.631 64.5742 124.166C64.5742 129.7 69.0609 134.187 74.5955 134.187Z" fill="#0A6EF0"/>
<g opacity="0.15">
<path d="M83.1222 118.908C81.4119 117.118 79.0996 116.025 76.6309 115.839C74.1623 115.653 71.7122 116.387 69.7529 117.9C67.7936 119.414 66.464 121.599 66.0202 124.034C65.5764 126.47 66.05 128.983 67.3497 131.09C66.3795 130.075 65.6335 128.867 65.1603 127.545C64.687 126.223 64.497 124.816 64.6026 123.415C64.7081 122.015 65.1069 120.652 65.773 119.416C66.4392 118.179 67.3577 117.097 68.4692 116.238C69.5807 115.38 70.8602 114.765 72.2248 114.433C73.5893 114.101 75.0085 114.059 76.3901 114.311C77.7718 114.562 79.0851 115.102 80.2448 115.894C81.4046 116.686 82.3849 117.713 83.1222 118.908Z" fill="#C0C0C5"/>
</g>
<path d="M77.5691 127.493C77.3099 127.873 76.9519 128.176 76.5336 128.369C76.0457 128.596 75.5177 128.724 74.98 128.746V129.654C74.9814 129.704 74.9726 129.755 74.954 129.802C74.9354 129.849 74.9074 129.892 74.8717 129.929C74.8335 129.965 74.7883 129.994 74.7387 130.012C74.6892 130.031 74.6364 130.039 74.5835 130.037C74.482 130.04 74.3832 130.004 74.3086 129.935C74.2718 129.898 74.2431 129.854 74.2244 129.806C74.2058 129.757 74.1976 129.706 74.2004 129.654V128.746C73.3115 128.694 72.4381 128.491 71.6175 128.145C71.5139 128.101 71.4251 128.027 71.3616 127.934C71.2883 127.832 71.2527 127.707 71.2609 127.581C71.2691 127.455 71.3206 127.336 71.4066 127.244C71.4543 127.191 71.5128 127.15 71.5779 127.122C71.6431 127.095 71.7134 127.081 71.7842 127.083C71.8677 127.083 71.9503 127.101 72.0267 127.135C72.7126 127.441 73.45 127.614 74.2004 127.647V124.706C73.6998 124.58 73.2103 124.413 72.7367 124.208C72.3505 124.036 72.0107 123.776 71.7455 123.447C71.4812 123.119 71.349 122.703 71.349 122.2C71.3459 121.769 71.4586 121.346 71.6752 120.973C71.9103 120.581 72.2456 120.259 72.6467 120.039C73.077 119.792 73.5948 119.643 74.2004 119.592V118.697C74.1991 118.646 74.2079 118.594 74.2265 118.546C74.2451 118.498 74.273 118.454 74.3086 118.416C74.3437 118.379 74.3863 118.349 74.4337 118.329C74.4811 118.309 74.5321 118.3 74.5835 118.301C74.6357 118.301 74.6874 118.311 74.7357 118.33C74.7839 118.35 74.8278 118.379 74.8647 118.416C74.9016 118.453 74.9308 118.497 74.9506 118.545C74.9704 118.594 74.9804 118.645 74.98 118.697V119.58C75.8152 119.613 76.5566 119.754 77.2043 120.001C77.3133 120.033 77.4083 120.101 77.4734 120.194C77.5385 120.287 77.5698 120.399 77.5621 120.513C77.5619 120.649 77.5119 120.781 77.4215 120.884C77.3764 120.938 77.3196 120.981 77.2554 121.009C77.1912 121.038 77.1213 121.052 77.051 121.05C76.9803 121.045 76.9109 121.028 76.8465 120.998C76.2452 120.79 75.616 120.674 74.98 120.653V123.696C75.5011 123.812 76.0119 123.97 76.5076 124.169C76.9045 124.334 77.2539 124.595 77.5241 124.929C77.7969 125.266 77.9333 125.711 77.9333 126.265C77.9378 126.702 77.811 127.129 77.5691 127.493ZM72.9413 122.98C73.2267 123.185 73.6464 123.36 74.2004 123.505V120.693C73.6886 120.76 73.2794 120.916 72.9729 121.159C72.826 121.27 72.7075 121.414 72.6275 121.579C72.5474 121.745 72.5079 121.927 72.5125 122.111C72.5125 122.486 72.6554 122.776 72.9413 122.98ZM76.7825 126.189C76.7825 125.857 76.6313 125.599 76.329 125.416C76.0268 125.233 75.5771 125.061 74.98 124.899V127.647C76.1816 127.562 76.7825 127.076 76.7825 126.189Z" fill="white"/>
</g>
<defs>
<clipPath id="clip0_2386_36810">
<rect width="351.5" height="220.227" fill="white" transform="translate(6.83398 67)"/>
</clipPath>
</defs>
</svg>
