<svg width="20" height="21" viewBox="0 0 20 21" fill="none" xmlns="http://www.w3.org/2000/svg">
<path d="M7.21326 5.29651C7.06248 5.44728 6.97012 5.65681 6.97042 5.88692L6.97042 5.98819C6.97042 6.44899 7.34346 6.82203 7.80366 6.82144L12.3566 6.82144L4.65483 14.5232C4.32956 14.8485 4.32956 15.3764 4.65483 15.7017C4.9801 16.027 5.50807 16.027 5.83334 15.7017L13.5351 7.99995V12.5529C13.5351 13.0137 13.9081 13.3867 14.3683 13.3861H14.4696C14.9304 13.3861 15.3035 13.0131 15.3029 12.5529V5.88692C15.3029 5.42612 14.9298 5.05308 14.4696 5.05367L7.80366 5.05367C7.57326 5.05367 7.36403 5.14573 7.21326 5.29651Z" fill="#34C759"/>
</svg>
